<svg width="269" height="269" viewBox="0 0 269 269" fill="none" xmlns="http://www.w3.org/2000/svg">
<path d="M95.1377 203.06C95.9577 203.585 96.6695 204.238 97.2732 205.019C97.8463 205.807 98.1993 206.651 98.3324 207.551L96.2751 208.362C96.089 207.586 95.822 206.915 95.474 206.351C95.0954 205.793 94.6546 205.353 94.1514 205.03C93.7786 204.792 93.404 204.617 93.0275 204.507C92.6509 204.398 92.3038 204.386 91.9861 204.471C91.6379 204.563 91.3443 204.796 91.1055 205.169C90.8429 205.579 90.7737 205.994 90.898 206.416C91.0037 206.825 91.2231 207.242 91.5563 207.666C91.8708 208.077 92.2192 208.498 92.6015 208.927C93.349 209.852 93.7953 210.756 93.9403 211.637C94.0853 212.519 93.9011 213.36 93.3877 214.162C92.9937 214.777 92.4804 215.25 91.8479 215.58C91.1849 215.918 90.4477 216.063 89.6364 216.017C88.8065 215.958 87.9442 215.642 87.0497 215.069C86.2483 214.556 85.5964 213.994 85.0941 213.383C84.5798 212.79 84.1864 212.092 83.9139 211.286L85.987 210.327C86.0956 210.896 86.3291 211.414 86.6876 211.88C87.0461 212.346 87.4057 212.708 87.7665 212.966C88.0714 213.187 88.4087 213.338 88.7785 213.417C89.1297 213.484 89.4642 213.475 89.7819 213.389C90.0996 213.304 90.348 213.121 90.5271 212.842C90.7778 212.45 90.8503 212.05 90.7446 211.64C90.6389 211.231 90.4288 210.82 90.1143 210.409C89.7693 210.004 89.4395 209.595 89.125 209.183C88.6547 208.646 88.2855 208.094 88.0173 207.527C87.7491 206.961 87.6159 206.39 87.6176 205.813C87.6007 205.223 87.7893 204.621 88.1833 204.006C88.6251 203.317 89.2047 202.781 89.9223 202.4C90.6092 202.025 91.4016 201.876 92.2994 201.951C93.1666 202.034 94.1127 202.403 95.1377 203.06Z" fill="black"/>
<path d="M62.6398 203.027L60.6413 200.673L65.2978 196.719L62.8479 193.834L64.6953 192.265L67.1452 195.15L75.7242 187.865L77.7227 190.219L69.1437 197.504L70.7769 199.427L68.9295 200.996L67.2963 199.073L62.6398 203.027Z" fill="black"/>
<path d="M52.7199 179.454L51.3884 176.669L63.7895 170.742L65.121 173.527L52.7199 179.454ZM48.3269 181.812C47.8876 182.022 47.437 182.029 46.9752 181.832C46.5039 181.616 46.168 181.298 45.9675 180.879C45.7671 180.459 45.7403 180.018 45.8871 179.556C46.0244 179.073 46.3127 178.727 46.7521 178.517C47.2114 178.297 47.6719 178.286 48.1337 178.482C48.566 178.668 48.8824 178.97 49.0828 179.39C49.2832 179.809 49.3196 180.27 49.1918 180.773C49.0546 181.255 48.7662 181.602 48.3269 181.812Z" fill="black"/>
<path d="M32.7725 161.84L32.1216 158.822L57.241 153.405L57.8919 156.424L32.7725 161.84Z" fill="black"/>
<path d="M55.235 131.24C55.1006 132.806 54.6764 134.125 53.9624 135.196C53.2264 136.266 52.2916 137.063 51.158 137.588C50.0043 138.089 48.7218 138.279 47.3104 138.158C45.9652 138.042 44.7707 137.595 43.7267 136.817C42.6828 136.039 41.8793 135.048 41.3161 133.844C40.753 132.641 40.532 131.333 40.6531 129.922C40.8083 128.114 41.4662 126.66 42.627 125.56C43.7877 124.46 45.3122 123.78 47.2006 123.52L50.2018 135.14L48.3201 135.712L45.741 126.16L46.1143 126.859C45.3638 127.061 44.6975 127.448 44.1152 128.02C43.5109 128.59 43.1662 129.371 43.081 130.364C43.0091 131.202 43.1542 131.97 43.5164 132.667C43.8566 133.363 44.3634 133.928 45.0369 134.364C45.7104 134.799 46.4992 135.056 47.4034 135.133C48.3516 135.215 49.2067 135.088 49.9684 134.754C50.7082 134.417 51.3169 133.925 51.7946 133.278C52.2521 132.606 52.5187 131.829 52.5944 130.947C52.6455 130.352 52.5844 129.769 52.4112 129.199C52.2399 128.606 51.9987 128.052 51.6875 127.537L54.092 126.311C54.4964 127.034 54.805 127.838 55.0179 128.723C55.2326 129.585 55.305 130.424 55.235 131.24Z" fill="black"/>
<path d="M68.2365 89.9099L59.6274 83.08L58.1624 84.9267L56.0036 83.2141L57.4687 81.3674L52.917 77.7564C51.3565 76.5184 50.4352 75.2225 50.1531 73.8686C49.8848 72.4974 50.2941 71.1269 51.3808 69.7571C51.6697 69.3929 52.0381 69.0354 52.486 68.6844C52.9477 68.3161 53.4306 68.0636 53.9347 67.9267L54.8726 70.3235C54.5927 70.3558 54.3511 70.4466 54.1478 70.5961C53.9271 70.7318 53.7411 70.895 53.5898 71.0858C53.0809 71.7273 52.9056 72.3935 53.0639 73.0842C53.2223 73.7748 53.8217 74.5329 54.862 75.3582L59.3876 78.9485L62.0907 75.5413L64.2494 77.254L61.5464 80.6612L70.1554 87.491L68.2365 89.9099Z" fill="black"/>
<path d="M77.5869 68.1845C76.8432 67.0312 76.4412 65.8156 76.3809 64.5377C76.3392 63.2478 76.628 62.0212 77.2474 60.8581C77.8668 59.6949 78.7903 58.7175 80.018 57.9258C81.2829 57.1101 82.5636 56.6661 83.8601 56.5938C85.1566 56.5215 86.3652 56.7824 87.4858 57.3766C88.6063 57.9708 89.5385 58.8445 90.2822 59.9978C91.0259 61.1511 91.4432 62.37 91.5341 63.6545C91.613 64.9204 91.3428 66.135 90.7234 67.2981C90.1226 68.4493 89.1898 69.4328 87.9249 70.2484C86.6972 71.0401 85.4378 71.4967 84.1467 71.6182C82.8622 71.7091 81.647 71.4788 80.5012 70.9272C79.362 70.345 78.3906 69.4308 77.5869 68.1845ZM80.1998 66.5391C80.6796 67.2831 81.2848 67.8541 82.0155 68.252C82.7341 68.6313 83.4864 68.8178 84.2724 68.8114C85.0769 68.7929 85.8233 68.5618 86.5115 68.118C87.237 67.6502 87.7648 67.0596 88.0949 66.3464C88.4436 65.6211 88.5842 64.8589 88.5166 64.0597C88.4369 63.242 88.1572 62.4611 87.6774 61.717C87.1976 60.973 86.6077 60.4053 85.9076 60.014C85.1956 59.6041 84.4373 59.4083 83.6327 59.4267C82.8348 59.4146 82.0731 59.6424 81.3476 60.1102C80.6408 60.566 80.119 61.1659 79.7823 61.9097C79.4642 62.6416 79.3356 63.4224 79.3966 64.2522C79.4642 65.0513 79.732 65.8136 80.1998 66.5391Z" fill="black"/>
<path d="M107.078 45.2362L108.327 49.031L108.038 48.5554C108.179 47.6538 108.503 46.8438 109.008 46.1254C109.531 45.3802 110.109 44.7693 110.743 44.2927C111.394 43.7892 111.987 43.4709 112.524 43.3377L113.099 46.3422C112.073 46.5282 111.229 46.9427 110.568 47.5857C109.928 48.2233 109.476 48.9741 109.211 49.8378C108.968 50.6963 108.953 51.5552 109.166 52.4145L110.677 58.5047L107.712 59.2401L104.403 45.8996L107.078 45.2362Z" fill="black"/>
<path d="M154.874 57.9996C153.949 57.6928 153.098 57.2354 152.321 56.6275C151.571 56.0056 151.021 55.2749 150.67 54.4354L152.463 53.1417C152.835 53.8482 153.259 54.4321 153.736 54.8934C154.24 55.3407 154.776 55.6585 155.343 55.8467C155.764 55.9861 156.17 56.0626 156.562 56.0761C156.954 56.0896 157.293 56.0157 157.58 55.8543C157.894 55.6789 158.122 55.3812 158.261 54.961C158.414 54.4989 158.379 54.079 158.154 53.7013C157.951 53.3306 157.635 52.9811 157.208 52.6527C156.802 52.3312 156.36 52.0098 155.884 51.6885C154.931 50.9758 154.276 50.2102 153.918 49.3918C153.56 48.5734 153.531 47.7125 153.83 46.8092C154.06 46.116 154.441 45.5311 154.973 45.0544C155.532 44.5638 156.21 44.2409 157.008 44.0859C157.827 43.9379 158.74 44.0312 159.749 44.3658C160.652 44.6656 161.422 45.0496 162.06 45.5177C162.704 45.9648 163.258 46.545 163.721 47.2584L161.948 48.699C161.703 48.1744 161.349 47.7304 160.886 47.367C160.424 47.0037 159.986 46.7418 159.573 46.5813C159.223 46.4418 158.859 46.3793 158.481 46.3937C158.124 46.4152 157.802 46.5066 157.515 46.668C157.229 46.8293 157.033 47.0675 156.928 47.3826C156.782 47.8238 156.81 48.2297 157.014 48.6004C157.217 48.9711 157.522 49.3171 157.929 49.6386C158.363 49.946 158.783 50.2604 159.19 50.5818C159.778 50.987 160.272 51.4308 160.672 51.9133C161.071 52.3957 161.341 52.9168 161.482 53.4765C161.644 54.0433 161.61 54.6732 161.38 55.3664C161.122 56.1437 160.692 56.8057 160.091 57.3524C159.518 57.8851 158.787 58.2255 157.898 58.3736C157.037 58.5077 156.029 58.383 154.874 57.9996Z" fill="black"/>
<path d="M186.4 49.9828L188.921 51.7651L185.395 56.7533L188.486 58.9381L187.087 60.9171L183.996 58.7324L177.499 67.9227L174.978 66.1404L181.475 56.9501L179.414 55.4935L180.814 53.5145L182.874 54.971L186.4 49.9828Z" fill="black"/>
<path d="M195.28 84.1458C194.537 83.0991 194.083 81.9824 193.919 80.7958C193.768 79.6273 193.946 78.4828 194.454 77.3624C194.992 76.2473 195.893 75.2412 197.156 74.3442C198.401 73.46 199.661 72.9592 200.935 72.8419C202.227 72.7117 203.424 72.9067 204.526 73.4269C205.641 73.9652 206.57 74.7577 207.314 75.8044C208.057 76.8511 208.441 77.9084 208.466 78.9762C208.51 80.0313 208.341 80.9789 207.961 81.8192L207.412 81.9644L209.967 80.5165L211.62 82.8445L200.414 90.8022L198.626 88.2847L201.549 86.2088L201.092 86.9408C200.86 86.9968 200.51 87.0009 200.042 86.9533C199.605 86.9109 199.095 86.7847 198.511 86.5747C197.94 86.3827 197.37 86.0955 196.8 85.7131C196.248 85.3179 195.741 84.7955 195.28 84.1458ZM197.845 83.3425C198.293 83.9741 198.814 84.4593 199.408 84.798C200.001 85.1367 200.621 85.3211 201.266 85.3512C201.943 85.3866 202.624 85.2559 203.309 84.9594L205.502 83.4025C205.941 82.8737 206.23 82.2878 206.371 81.645C206.53 80.9893 206.538 80.332 206.396 79.6729C206.272 79.001 205.992 78.3583 205.556 77.7447C205.082 77.077 204.484 76.5787 203.762 76.2499C203.04 75.9211 202.268 75.7903 201.447 75.8575C200.639 75.9427 199.847 76.2608 199.071 76.8119C198.349 77.3244 197.812 77.9636 197.46 78.7294C197.108 79.4951 196.966 80.2885 197.033 81.1094C197.1 81.9304 197.371 82.6747 197.845 83.3425Z" fill="black"/>
<path d="M210.353 113.742C210.068 112.513 210.086 111.362 210.405 110.288C210.729 109.236 211.236 108.335 211.926 107.584L212.946 107.723L209.485 108.525L208.789 105.517L233.823 99.7185L234.512 102.694L219.795 106.103L220.905 105.743C221.763 106.113 222.533 106.741 223.216 107.628C223.925 108.531 224.422 109.598 224.706 110.827C224.986 112.034 224.95 113.201 224.597 114.328C224.245 115.455 223.608 116.432 222.686 117.258C221.791 118.102 220.621 118.691 219.176 119.026C217.667 119.375 216.298 119.351 215.07 118.954C213.847 118.579 212.822 117.93 211.995 117.008C211.19 116.081 210.643 114.993 210.353 113.742ZM212.766 112.536C212.965 113.398 213.35 114.127 213.92 114.722C214.489 115.317 215.164 115.729 215.944 115.957C216.745 116.181 217.599 116.187 218.504 115.978C219.367 115.778 220.096 115.393 220.691 114.824C221.312 114.271 221.748 113.602 221.998 112.817C222.253 112.054 222.281 111.241 222.081 110.378C221.911 109.645 221.613 108.998 221.188 108.438C220.763 107.878 220.253 107.439 219.657 107.123C219.083 106.802 218.452 106.63 217.765 106.607L215.081 107.229C214.474 107.551 213.959 107.977 213.536 108.506C213.135 109.031 212.856 109.641 212.699 110.336C212.564 111.026 212.586 111.76 212.766 112.536Z" fill="black"/>
<path d="M227.251 136.762L226.981 139.838L213.289 138.637L213.559 135.562L227.251 136.762ZM232.232 136.966C232.717 137.008 233.109 137.231 233.407 137.635C233.703 138.061 233.83 138.506 233.79 138.969C233.749 139.432 233.548 139.825 233.186 140.149C232.823 140.495 232.398 140.646 231.913 140.604C231.406 140.559 231.004 140.335 230.706 139.931C230.428 139.551 230.31 139.13 230.35 138.667C230.391 138.204 230.594 137.788 230.959 137.421C231.323 137.075 231.747 136.923 232.232 136.966Z" fill="black"/>
<path d="M235.446 162.116L234.469 165.045L210.094 156.911L211.071 153.982L235.446 162.116Z" fill="black"/>
<path d="M216.05 178.611L214.421 181.234L202.744 173.983L204.373 171.36L216.05 178.611ZM220.403 181.04C220.817 181.297 221.066 181.673 221.149 182.168C221.221 182.682 221.134 183.136 220.889 183.531C220.644 183.925 220.287 184.186 219.818 184.311C219.337 184.456 218.89 184.4 218.477 184.143C218.044 183.874 217.786 183.493 217.703 182.998C217.626 182.534 217.711 182.104 217.956 181.709C218.201 181.314 218.57 181.035 219.062 180.872C219.542 180.727 219.99 180.784 220.403 181.04Z" fill="black"/>
<path d="M206.357 202.296L204.106 204.409L199.925 199.955L197.165 202.546L195.506 200.779L198.266 198.188L190.563 189.983L192.814 187.87L200.517 196.075L202.356 194.348L204.015 196.115L202.176 197.842L206.357 202.296Z" fill="black"/>
<path d="M172.68 196.391L173.135 218.665L170.551 219.88L169.916 197.69L172.68 196.391ZM172.383 203.721L184.252 213.44L181.097 214.923L170.854 206.164L172.383 203.721Z" fill="black"/>
</svg>
