<svg width="144" height="138" viewBox="0 0 144 138" fill="none" xmlns="http://www.w3.org/2000/svg">
<ellipse cx="72" cy="69" rx="72" ry="69" fill="#E1C2CF"/>
<path d="M93 55H96.5C100.213 55 103.774 56.475 106.399 59.1005C109.025 61.726 110.5 65.287 110.5 69C110.5 72.713 109.025 76.274 106.399 78.8995C103.774 81.525 100.213 83 96.5 83H93M93 55H37V86.5C37 90.213 38.475 93.774 41.1005 96.3995C43.726 99.025 47.287 100.5 51 100.5H79C82.713 100.5 86.274 99.025 88.8995 96.3995C91.525 93.774 93 90.213 93 86.5V55ZM51 30.5V41M65 30.5V41M79 30.5V41" stroke="white" stroke-width="4" stroke-linecap="round" stroke-linejoin="round"/>
</svg>
