<svg width="1366" height="540" viewBox="0 0 1366 540" fill="none" xmlns="http://www.w3.org/2000/svg">
<path d="M1366 540H1320.47C1274.93 540 1183.87 539.999 1092.8 513.285C1001.73 486.571 910.667 433.143 819.6 428.691C728.533 424.238 637.467 468.762 546.4 468.762C455.333 468.762 364.267 424.238 273.2 428.691C182.134 433.143 91.0668 486.571 45.5333 513.285L0 540V34.7603L56.9167 23.3238C113.833 11.8871 227.667 -10.9864 341.5 6.16853C455.333 23.3235 569.167 80.5071 683 103.38C796.833 126.254 910.667 114.817 1024.5 97.6616C1138.33 80.5067 1252.17 57.6334 1309.08 46.1968L1366 34.7603V540Z" fill="#C09726"/>
</svg>
